<?xml version="1.0" encoding="utf-8"?>
<!-- Generator: Adobe Illustrator 16.0.0, SVG Export Plug-In . SVG Version: 6.00 Build 0)  -->
<!DOCTYPE svg PUBLIC "-//W3C//DTD SVG 1.1//EN" "http://www.w3.org/Graphics/SVG/1.1/DTD/svg11.dtd">
<svg version="1.1"
	 id="svg2" sodipodi:version="0.32" inkscape:version="0.43" sodipodi:docname="logo-python-generic.svg" sodipodi:docbase="/home/sdeibel" xmlns:dc="http://purl.org/dc/elements/1.1/" xmlns:cc="http://web.resource.org/cc/" xmlns:rdf="http://www.w3.org/1999/02/22-rdf-syntax-ns#" xmlns:svg="http://www.w3.org/2000/svg" xmlns:sodipodi="http://inkscape.sourceforge.net/DTD/sodipodi-0.dtd" xmlns:inkscape="http://www.inkscape.org/namespaces/inkscape"
	 xmlns="http://www.w3.org/2000/svg" xmlns:xlink="http://www.w3.org/1999/xlink" x="0px" y="0px" width="201.92px"
	 height="52.584px" viewBox="0 0 201.92 52.584" enable-background="new 0 0 201.92 52.584" xml:space="preserve">
<sodipodi:namedview  inkscape:window-width="791" inkscape:window-x="0" inkscape:window-y="0" inkscape:current-layer="svg2" inkscape:pageshadow="2" inkscape:pageopacity="0.0" inkscape:window-height="543" id="base" inkscape:zoom="1.4340089" bordercolor="#666666" pagecolor="#ffffff" borderopacity="1.0" inkscape:cx="243.02499" inkscape:cy="71.887497">
	</sodipodi:namedview>
<g id="g2303">
	<path id="path46" fill="#646464" d="M76.874,26.622c0-5.798-1.654-8.775-4.96-8.938c-1.316-0.063-2.601,0.147-3.85,0.632
		c-0.998,0.357-1.669,0.71-2.022,1.067v13.84c2.115,1.327,3.994,1.944,5.632,1.847C75.139,34.842,76.874,32.029,76.874,26.622z
		 M80.953,26.863c0,2.946-0.691,5.392-2.08,7.336c-1.548,2.2-3.694,3.334-6.439,3.396c-2.068,0.066-4.199-0.583-6.392-1.941v12.579
		l-3.548-1.266v-27.92c0.583-0.714,1.332-1.327,2.24-1.847c2.111-1.23,4.677-1.862,7.696-1.895l0.05,0.051
		c2.759-0.035,4.887,1.099,6.38,3.396C80.254,20.859,80.953,23.56,80.953,26.863z"/>
	<path id="path48" fill="#646464" d="M102.632,35.118c0,3.95-0.396,6.687-1.187,8.208c-0.796,1.521-2.31,2.735-4.545,3.641
		c-1.813,0.714-3.772,1.103-5.876,1.168L90.439,45.9c2.138-0.291,3.645-0.582,4.518-0.874c1.719-0.582,2.899-1.474,3.547-2.669
		c0.52-0.975,0.776-2.834,0.776-5.585v-0.925c-2.426,1.104-4.967,1.649-7.626,1.649c-1.746,0-3.287-0.546-4.615-1.649
		c-1.49-1.199-2.235-2.72-2.235-4.563V16.52l3.547-1.215v14.86c0,1.588,0.513,2.81,1.536,3.668c1.026,0.856,2.353,1.269,3.979,1.237
		c1.626-0.034,3.369-0.663,5.221-1.894V15.84h3.546L102.632,35.118L102.632,35.118z"/>
	<path id="path50" fill="#646464" d="M116.48,37.4c-0.423,0.035-0.811,0.052-1.168,0.052c-2.006,0-3.57-0.479-4.688-1.437
		c-1.114-0.959-1.672-2.283-1.672-3.971V18.073h-2.43V15.84h2.43V9.914l3.543-1.262v7.188h3.985v2.232h-3.985v13.875
		c0,1.33,0.357,2.273,1.071,2.825c0.614,0.453,1.588,0.713,2.915,0.78L116.48,37.4L116.48,37.4z"/>
	<path id="path52" fill="#646464" d="M137.958,37.109h-3.548V23.416c0-1.394-0.326-2.592-0.974-3.594
		c-0.749-1.135-1.79-1.7-3.124-1.7c-1.626,0-3.66,0.856-6.102,2.572v16.413h-3.547V4.379l3.547-1.117v14.907
		c2.267-1.649,4.743-2.478,7.433-2.478c1.878,0,3.399,0.634,4.564,1.896c1.168,1.261,1.75,2.833,1.75,4.711L137.958,37.109
		L137.958,37.109z"/>
	<path id="path54" fill="#646464" d="M156.813,26.063c0-2.228-0.423-4.066-1.266-5.521c-1.001-1.773-2.557-2.709-4.661-2.807
		c-3.889,0.226-5.829,3.012-5.829,8.353c0,2.449,0.404,4.494,1.218,6.136c1.04,2.092,2.6,3.124,4.681,3.089
		C154.861,35.281,156.813,32.199,156.813,26.063z M160.698,26.087c0,3.17-0.811,5.81-2.43,7.917
		c-1.781,2.36-4.241,3.543-7.381,3.543c-3.113,0-5.539-1.183-7.289-3.543c-1.587-2.107-2.378-4.747-2.378-7.917
		c0-2.981,0.857-5.488,2.573-7.529c1.813-2.166,4.195-3.253,7.141-3.253c2.946,0,5.345,1.087,7.192,3.253
		C159.839,20.598,160.698,23.106,160.698,26.087z"/>
	<path id="path56" fill="#646464" d="M181.034,37.109h-3.547V22.64c0-1.587-0.478-2.826-1.433-3.718
		c-0.954-0.89-2.228-1.319-3.815-1.285c-1.685,0.03-3.287,0.583-4.809,1.649v17.821h-3.547v-18.26
		c2.042-1.486,3.921-2.457,5.636-2.911c1.619-0.423,3.047-0.633,4.277-0.633c0.843,0,1.634,0.081,2.379,0.244
		c1.393,0.323,2.526,0.92,3.4,1.797c0.974,0.971,1.459,2.134,1.459,3.498V37.109L181.034,37.109z"/>
	
		<linearGradient id="path1948_1_" gradientUnits="userSpaceOnUse" x1="197.502" y1="1209.6467" x2="240.9123" y2="1246.9954" gradientTransform="matrix(0.5625 0 0 0.568 -106.5902 -681.2979)">
		<stop  offset="0" style="stop-color:#5A9FD4"/>
		<stop  offset="1" style="stop-color:#306998"/>
	</linearGradient>
	<path id="path1948" fill="url(#path1948_1_)" d="M27.459,4.51c-1.826,0.009-3.568,0.164-5.102,0.436
		c-4.518,0.8-5.338,2.47-5.338,5.551v4.068h10.676v1.356H17.019h-4.006c-3.104,0-5.82,1.865-6.67,5.413
		c-0.98,4.065-1.023,6.604,0,10.85c0.76,3.161,2.572,5.413,5.675,5.413h3.67v-4.878c0-3.523,3.049-6.632,6.669-6.632h10.664
		c2.968,0,5.338-2.444,5.338-5.425V10.496c0-2.894-2.441-5.067-5.338-5.551C31.187,4.641,29.284,4.502,27.459,4.51z M21.686,7.783
		c1.103,0,2.003,0.915,2.003,2.04c0,1.121-0.9,2.027-2.003,2.027c-1.107,0-2.003-0.907-2.003-2.027
		C19.682,8.698,20.579,7.783,21.686,7.783z"/>
	
		<linearGradient id="path1950_1_" gradientUnits="userSpaceOnUse" x1="257.6963" y1="1269.6008" x2="242.1961" y2="1247.6708" gradientTransform="matrix(0.5625 0 0 0.568 -106.5902 -681.2979)">
		<stop  offset="0" style="stop-color:#FFD43B"/>
		<stop  offset="1" style="stop-color:#FFE873"/>
	</linearGradient>
	<path id="path1950" fill="url(#path1950_1_)" d="M39.69,15.921v4.74c0,3.676-3.117,6.77-6.669,6.77H22.357
		c-2.921,0-5.338,2.499-5.338,5.424v10.167c0,2.895,2.516,4.597,5.338,5.426c3.379,0.993,6.62,1.173,10.664,0
		c2.688-0.778,5.338-2.346,5.338-5.426v-4.068H27.695v-1.355h10.664h5.338c3.103,0,4.259-2.165,5.338-5.413
		c1.114-3.344,1.067-6.56,0-10.85c-0.767-3.089-2.231-5.413-5.338-5.413L39.69,15.921L39.69,15.921z M33.692,41.665
		c1.107,0,2.004,0.907,2.004,2.028c0,1.125-0.897,2.041-2.004,2.041c-1.102,0-2.003-0.916-2.003-2.041
		C31.689,42.573,32.59,41.665,33.692,41.665z"/>
	<path id="text3004" fill="#646464" d="M187.942,12.678h0.622v-3.9h1.473V8.312h-3.568v0.465h1.474L187.942,12.678 M190.589,12.678
		h0.531V9.115l1.153,3.562h0.591l1.202-3.55v3.55h0.58V8.312h-0.767l-1.314,3.74l-1.119-3.74h-0.857V12.678"/>
	
		<radialGradient id="path1894_1_" cx="-2649.9629" cy="311.0842" r="11.5574" gradientTransform="matrix(1.749057e-008 -0.2399 1.0547 3.791546e-007 -300.2838 -580.4229)" gradientUnits="userSpaceOnUse">
		<stop  offset="0" style="stop-color:#B8B8B8;stop-opacity:0.498"/>
		<stop  offset="1" style="stop-color:#7F7F7F;stop-opacity:0"/>
	</radialGradient>
	<path id="path1894" opacity="0.4438" fill="url(#path1894_1_)" enable-background="new    " d="M42.123,55.358
		c0,1.532-6.405,2.773-14.307,2.773S13.51,56.89,13.51,55.358c0-1.531,6.405-2.773,14.307-2.773
		C35.719,52.584,42.123,53.825,42.123,55.358z"/>
</g>
</svg>
